<svg width="24" height="24" viewBox="0 0 24 24" fill="none" xmlns="http://www.w3.org/2000/svg">
<path d="M12 22.5C8.40625 22.5 5.125 20.625 3.32812 17.5C1.53125 14.4141 1.53125 10.625 3.32812 7.5C5.125 4.41406 8.40625 2.5 12 2.5C15.5547 2.5 18.8359 4.41406 20.6328 7.5C22.4297 10.625 22.4297 14.4141 20.6328 17.5C18.8359 20.625 15.5547 22.5 12 22.5ZM13.25 8.125C13.25 7.8125 12.9375 7.5 12.625 7.5C12.2734 7.5 12 7.8125 12 8.125V16.875C12 17.2266 12.2734 17.5 12.625 17.5C12.9375 17.5 13.25 17.2266 13.25 16.875V8.125ZM8.25 9.375C8.25 9.0625 7.9375 8.75 7.625 8.75C7.27344 8.75 7 9.0625 7 9.375V15.625C7 15.9766 7.27344 16.25 7.625 16.25C7.9375 16.25 8.25 15.9766 8.25 15.625V9.375ZM15.75 10.3125C15.75 10 15.4375 9.6875 15.125 9.6875C14.7734 9.6875 14.5 10 14.5 10.3125V14.6875C14.5 15.0391 14.7734 15.3125 15.125 15.3125C15.4375 15.3125 15.75 15.0391 15.75 14.6875V10.3125ZM10.75 10.9375C10.75 10.625 10.4375 10.3125 10.125 10.3125C9.77344 10.3125 9.5 10.625 9.5 10.9375V14.0625C9.5 14.4141 9.77344 14.6875 10.125 14.6875C10.4375 14.6875 10.75 14.4141 10.75 14.0625V10.9375ZM18.25 11.875C18.25 11.5625 17.9375 11.25 17.625 11.25C17.2734 11.25 17 11.5625 17 11.875V13.125C17 13.4766 17.2734 13.75 17.625 13.75C17.9375 13.75 18.25 13.4766 18.25 13.125V11.875Z" fill="url(#paint0_linear_12644_105887)"/>
<defs>
<linearGradient id="paint0_linear_12644_105887" x1="2" y1="12" x2="22" y2="12" gradientUnits="userSpaceOnUse">
<stop stop-color="#205CFF"/>
<stop offset="1" stop-color="#AE71D2"/>
</linearGradient>
</defs>
</svg>
