<svg width="24" height="23" viewBox="0 0 24 23" fill="none" xmlns="http://www.w3.org/2000/svg">
<path d="M12 22.75C8.04688 22.75 4.4375 20.6875 2.46094 17.25C0.484375 13.8555 0.484375 9.6875 2.46094 6.25C4.4375 2.85547 8.04688 0.75 12 0.75C15.9102 0.75 19.5195 2.85547 21.4961 6.25C23.4727 9.6875 23.4727 13.8555 21.4961 17.25C19.5195 20.6875 15.9102 22.75 12 22.75ZM8.51953 8.26953C8.08984 8.69922 8.08984 9.34375 8.51953 9.73047L10.5391 11.75L8.51953 13.7695C8.08984 14.1992 8.08984 14.8438 8.51953 15.2305C8.90625 15.6602 9.55078 15.6602 9.9375 15.2305L11.957 13.2109L13.9766 15.2305C14.4062 15.6602 15.0508 15.6602 15.4375 15.2305C15.8672 14.8438 15.8672 14.1992 15.4375 13.7695L13.418 11.75L15.4375 9.73047C15.8672 9.34375 15.8672 8.69922 15.4375 8.26953C15.0508 7.88281 14.4062 7.88281 13.9766 8.26953L11.957 10.2891L9.9375 8.26953C9.55078 7.88281 8.90625 7.88281 8.51953 8.26953Z" fill="#484848"/>
</svg>
