<svg width="16" height="19" viewBox="0 0 16 19" fill="none" xmlns="http://www.w3.org/2000/svg">
<path d="M13.2188 9.75C13.3646 9.60938 13.5417 9.53385 13.75 9.52344C13.9583 9.51302 14.1328 9.58333 14.2734 9.73438C14.4245 9.875 14.5 10.0573 14.5 10.2812C14.5 10.5 14.4271 10.6797 14.2812 10.8203L8.46094 16.6406C7.95573 17.1406 7.40885 17.5104 6.82031 17.75C6.23177 17.9948 5.63021 18.112 5.01562 18.1016C4.40625 18.0964 3.81771 17.9714 3.25 17.7266C2.68229 17.487 2.16927 17.1406 1.71094 16.6875C1.2526 16.2292 0.903646 15.7135 0.664062 15.1406C0.424479 14.5729 0.299479 13.9844 0.289062 13.375C0.278646 12.7656 0.393229 12.1667 0.632812 11.5781C0.877604 10.9896 1.2526 10.4427 1.75781 9.9375L9.72656 1.95312C10.2422 1.43229 10.7995 1.09115 11.3984 0.929688C11.9974 0.768229 12.5833 0.765625 13.1562 0.921875C13.7292 1.07812 14.237 1.3776 14.6797 1.82031C15.138 2.27865 15.4427 2.79427 15.5938 3.36719C15.75 3.9349 15.7422 4.51562 15.5703 5.10938C15.4036 5.69792 15.0625 6.25 14.5469 6.76562L6.71094 14.6094C6.41927 14.8958 6.09635 15.0885 5.74219 15.1875C5.38802 15.2917 5.03385 15.2995 4.67969 15.2109C4.32552 15.1224 4.01042 14.9375 3.73438 14.6562C3.47917 14.401 3.30469 14.0964 3.21094 13.7422C3.1224 13.388 3.125 13.0286 3.21875 12.6641C3.3125 12.2995 3.5026 11.974 3.78906 11.6875L9.25 6.23438C9.39583 6.08333 9.56771 6.00521 9.76562 6C9.96354 5.99479 10.1354 6.0625 10.2812 6.20312C10.4271 6.34896 10.4974 6.52083 10.4922 6.71875C10.487 6.91146 10.4089 7.08594 10.2578 7.24219L4.82031 12.6641C4.65885 12.8255 4.58854 12.9922 4.60938 13.1641C4.63542 13.3359 4.70052 13.4766 4.80469 13.5859C4.91927 13.6953 5.0599 13.763 5.22656 13.7891C5.39844 13.8099 5.5651 13.737 5.72656 13.5703L13.5234 5.76562C13.7995 5.48958 14 5.17708 14.125 4.82812C14.25 4.47917 14.2786 4.13281 14.2109 3.78906C14.1484 3.44531 13.9792 3.13281 13.7031 2.85156C13.4323 2.57552 13.1224 2.40625 12.7734 2.34375C12.4245 2.28125 12.0755 2.3125 11.7266 2.4375C11.3776 2.55729 11.0651 2.75521 10.7891 3.03125L2.85938 10.9531C2.38021 11.4375 2.0651 11.9609 1.91406 12.5234C1.76823 13.0807 1.77344 13.6276 1.92969 14.1641C2.09115 14.7005 2.38021 15.1771 2.79688 15.5938C3.20833 16.0156 3.68229 16.3047 4.21875 16.4609C4.76042 16.6172 5.3099 16.6224 5.86719 16.4766C6.42969 16.3307 6.95312 16.0156 7.4375 15.5312L13.2188 9.75Z" fill="#767676"/>
</svg>
