<svg width="12" height="16" viewBox="0 0 12 16" fill="none" xmlns="http://www.w3.org/2000/svg">
<path d="M7.5 3C7.5 2.1875 6.8125 1.5 6 1.5C5.15625 1.5 4.5 2.1875 4.5 3V8C4.5 8.84375 5.15625 9.5 6 9.5C6.8125 9.5 7.5 8.84375 7.5 8V3ZM3 3C3 1.34375 4.34375 0 6 0C7.65625 0 9 1.34375 9 3V8C9 9.65625 7.65625 11 6 11C4.34375 11 3 9.65625 3 8V3ZM2 6.75V8C2 10.2188 3.78125 12 6 12C8.1875 12 10 10.2188 10 8V6.75C10 6.34375 10.3125 6 10.75 6C11.1562 6 11.5 6.34375 11.5 6.75V8C11.5 10.8125 9.40625 13.0938 6.75 13.4688V14.5H8.25C8.65625 14.5 9 14.8438 9 15.25C9 15.6875 8.65625 16 8.25 16H6H3.75C3.3125 16 3 15.6875 3 15.25C3 14.8438 3.3125 14.5 3.75 14.5H5.25V13.4688C2.5625 13.0938 0.5 10.8125 0.5 8V6.75C0.5 6.34375 0.8125 6 1.25 6C1.65625 6 2 6.34375 2 6.75Z" fill="#767676"/>
</svg>
