<svg width="26" height="24" viewBox="0 0 26 24" fill="none" xmlns="http://www.w3.org/2000/svg">
<path d="M13 24C8.6875 24 4.75 21.75 2.59375 18C0.4375 14.2969 0.4375 9.75 2.59375 6C4.75 2.29688 8.6875 0 13 0C17.2656 0 21.2031 2.29688 23.3594 6C25.5156 9.75 25.5156 14.2969 23.3594 18C21.2031 21.75 17.2656 24 13 24ZM19.0469 10.8281L13.75 5.57812C13.3281 5.15625 12.625 5.15625 12.2031 5.57812L6.95312 10.8281C6.48438 11.2969 6.48438 12 6.95312 12.4219C7.375 12.8906 8.07812 12.8906 8.54688 12.4219L11.875 9.09375V17.625C11.875 18.2812 12.3438 18.75 13 18.75C13.6094 18.75 14.125 18.2812 14.125 17.625V9.09375L17.4531 12.4219C17.875 12.8906 18.5781 12.8906 19.0469 12.4219C19.4688 12 19.4688 11.2969 19.0469 10.8281Z" fill="#215FFF"/>
</svg>
